<svg id="awta_logo" xmlns="http://www.w3.org/2000/svg" xmlns:xlink="http://www.w3.org/1999/xlink" width="345" height="300" viewBox="0 0 345 300">
  <defs>
    <clipPath id="clip-path">
      <rect id="Rettangolo_41" data-name="Rettangolo 41" width="345" height="300" fill="none"/>
    </clipPath>
  </defs>
  <g id="Raggruppa_76" data-name="Raggruppa 76" clip-path="url(#clip-path)">
    <path id="Tracciato_25" data-name="Tracciato 25" d="M88.822,152.785l-.039.039a.233.233,0,0,1,.091-.065.1.1,0,0,0-.052.026m168.408,0a.1.1,0,0,0-.052-.026.233.233,0,0,1,.091.065Z"/>
    <path id="Tracciato_26" data-name="Tracciato 26" d="M257.594,153.187a.805.805,0,0,0-.156-.207.375.375,0,0,0-.129-.117c-.013-.026-.026-.026-.039-.039a.233.233,0,0,0-.091-.065,1.582,1.582,0,0,0-.311-.13c-.026,0-.039-.013-.065-.013-.065-.013-.117-.013-.181-.026-.039,0-.078-.013-.117-.013l-.013.013a1.294,1.294,0,0,0-1.011.494L173.027,260.743,90.573,153.084a1.3,1.3,0,0,0-1.011-.494l-.013-.013c-.039,0-.078.013-.117.013-.065.013-.116.013-.181.026-.013,0-.039.013-.052.013a1.408,1.408,0,0,0-.324.13.233.233,0,0,0-.091.065c-.013.013-.026.013-.039.039a.366.366,0,0,0-.129.117.805.805,0,0,0-.156.207,1.229,1.229,0,0,0-.207.689,1.106,1.106,0,0,0,.039.3.581.581,0,0,0,.09.247c0,.039.026.065.039.1L171.9,299.351a1.3,1.3,0,0,0,2.256,0l83.478-144.826c.013-.039.038-.065.038-.1a.57.57,0,0,0,.091-.247,1.106,1.106,0,0,0,.039-.3,1.229,1.229,0,0,0-.207-.689M171.731,293.86,109.793,186.408l61.938,92.445Zm2.592,0V278.853l61.938-92.445Z"/>
    <path id="Tracciato_27" data-name="Tracciato 27" d="M196.757,161.366v5.608h-6.221v22.654h-5.6V166.974h-6.221v-5.608Z"/>
    <path id="Tracciato_28" data-name="Tracciato 28" d="M209.924,161.366h-6.531L196.2,189.627h6.313l.972-5.231h6.558l1.1,5.231h5.767Zm-5.442,17.681,2.073-11.139,2.358,11.139Z"/>
    <path id="Tracciato_29" data-name="Tracciato 29" d="M142.88,161.366h-6.532l-7.206,28.261h6.312l.972-5.231h6.558l1.115,5.231h5.754Zm-5.456,17.681,2.074-11.139,2.359,11.139Z"/>
    <path id="Tracciato_30" data-name="Tracciato 30" d="M178.178,161.374l-5.171,28.249h-5.832l-2.891-14.5-2.89,14.5h-5.832l-5.171-28.249h5.586l2.5,14.124,2.489-14.124H167.6l2.489,14.124,2.5-14.124Z"/>
    <path id="Tracciato_31" data-name="Tracciato 31" d="M181.173,197.745c-8.722.127-20.929-.627-26.926,2.172-4.225,1.909-1.012,4.148,1.168,6.693s2.377,5.3,1.329,4.474-2.537-.9-2.658.15-.685,2.6,1.208,3.873,3.3,2.481,3.061,3.309-2.295,1.616-2.094,3.12,2.094,3.2,3.1,3.647,2.014.94,1.289,2.256-1.852,2.256-1.611,3.008,2.981,4.324,15.023,4.324,13.01-4.625,12.768-6.129-2.3.639-3.1,1.053a7.435,7.435,0,0,1-4.471.338c-2.094-.376-5.759-1.2-11.72-2.03-.766-.188-1.048-.79,0-.9s4.712.714,9.908.714,7.531-.188,10.754-3.346,2.094-5.076,1.168-5.3a4.817,4.817,0,0,0-4.552,1.165c-2.094,1.654-4.47,1.391-6.6,1.391s-8.9-1.278-11.841-1.278-1.45-1.993-.242-1.918,8.539,1.279,11.559,1.279,11.358-2.294,13.735-6.054-5.115-3.083-6.888-2.9-3.705,1.2-6.041,1.053-9.586-.977-13.412-.752c-2.175.151-2.3-.564-1.414-1.542s2.009-1.125,3.942-.937,7.058.524,10.884.524,11.076.075,11.076-4.775-8.4-6.684-8.4-6.684"/>
    <path id="Tracciato_32" data-name="Tracciato 32" d="M184.857,194.822c2.441-.465,9.062-.226,10.432.489s4.148,2.932,4.148,8.61c0,1.128-.443,1.165-1.45,1.165a2.79,2.79,0,0,0-2.416,2.143c0,.94-.161,2.519-1.732,2.519s-2.377-1.128-2.377-3.12.484-5.6-2.215-7.332-5.518-2.744-5.679-3.346.789-1.033,1.289-1.128"/>
    <path id="Tracciato_33" data-name="Tracciato 33" d="M196.819,207.793c.249.843-1.168,1.241-.443,2.519.374.66,2.175.038,2.779-.9s.322-3.234-.685-3.347a1.4,1.4,0,0,0-1.651,1.73"/>
    <path id="Tracciato_34" data-name="Tracciato 34" d="M239.084,63.668l20.64,31.311,20.639-31.311L259.724,88.533Z"/>
    <path id="Tracciato_35" data-name="Tracciato 35" d="M307.351,17.238c-31.52-8.988-77.292-13.1-101.184,1.361-5.113,3.094.371,8.045,3.7,6.053,1.16-.694,1.467-3.587,4.118-4.83s4.287-.508,9.138.113,6.487-1.921,9.307-3.164,3.667-1.808,5.979-.4,1.517,5.2,2.764,5.311c1.715.154,1.016-2.317,2.821-3.56s3.133-2.881,11.692-1.808,20.539,5.1,35.164,5.188c13.182.08,16.5-4.269,16.5-4.269"/>
    <path id="Tracciato_36" data-name="Tracciato 36" d="M262.581,128.054a3.061,3.061,0,0,1-3.992-1.285L208.1,39.167s-2.281-3.558.337-4.908c2.372-1.22,4.472,2.129,4.472,2.129L224.49,56.5l11.068-6.387c-.259-1.454.013-2.661.83-3.167,1.439-.9,4.018.662,5.754,3.479s2,5.816.558,6.712c-.856.519-2.1.194-3.344-.753l-11.2,6.465,35.24,61.145s1.464,3.128-.817,4.063"/>
    <path id="Tracciato_37" data-name="Tracciato 37" d="M307.1,47.337l-4.385-2.5,17.3-30.427,4.385,2.5Z"/>
    <path id="Tracciato_38" data-name="Tracciato 38" d="M266.607,118.578l-4.385-2.5,39.716-69.87,4.384,2.5Z"/>
    <path id="Tracciato_39" data-name="Tracciato 39" d="M240.826,26.079s-7.59.088-9.362,0v.394s.745.219,1.329.329.564.481.564.919-.02,6.218-.061,7.795c0,.569.3.9-1.832,1.2v.394s3.926-.153,9.362,0c.221-.657,1.027-2.89,1.027-2.89l-.624-.022s-.262.5-.705,1.182-.6.964-1.812.964h-3.845V31.684h2.838c.564,0,.967.131,1.067.635s.2.942.2.942l.523.021s-.1-1.2-.1-1.861.14-2.1.14-2.1l-.523.022s-.221.854-.3,1.1-.282.482-1.087.482h-2.779l.021-4.051h3.342c.926,0,1.57.022,1.812.679s.422,1.117.422,1.117h.584a24.432,24.432,0,0,1-.2-2.584"/>
    <path id="Tracciato_40" data-name="Tracciato 40" d="M248.208,29.8l-.241,1.754-.6-.014a1.43,1.43,0,0,0-1.2-1.445c-.957-.168-1.683.2-1.727.753s.077.873.88,1.328A13.743,13.743,0,0,1,248,33.767a1.9,1.9,0,0,1-.23,2.8c-1.122,1.137-3.08.873-4.576.371,0,0,.154-1.507.143-2.033.154,0,.561.012.561.012a2.007,2.007,0,0,0,1.551,1.686c.913.084,1.419-.012,1.705-.729s-.275-1.292-.869-1.639-2.794-1.148-3.014-2.225.484-2.4,2.578-2.607a4.176,4.176,0,0,1,2.362.4"/>
    <path id="Tracciato_41" data-name="Tracciato 41" d="M255.294,32.019a1.782,1.782,0,0,0-1.96-1.932c-1.411,0-2.407,1.228-2.308,3.178.164,3.2,2.839,3.611,4.964,2.148l.332.434a14.619,14.619,0,0,1-1.942,1.227,3.672,3.672,0,0,1-3.686-.614,4.212,4.212,0,0,1-.68-4.64c.864-1.931,3.353-3.322,6.308-1.859-.133.487-.418,1.789-.468,2.132Z"/>
    <path id="Tracciato_42" data-name="Tracciato 42" d="M259.7,31.236c.47-.466,1.45-2.223,3.121-1.472a9.431,9.431,0,0,0-.345,1.652h-.428a.74.74,0,0,0-.636-.751,2.236,2.236,0,0,0-1.532,1.352,5.54,5.54,0,0,0-.235,2.328c.041,1.126-.028,1.967.538,2.147a4.681,4.681,0,0,0,.953.21l-.014.421s-1.118-.075-1.988-.075-2.172.075-2.172.075l.018-.406c.359-.1.87-.21,1.132-.315s.276-.375.276-1.1.07-2.419,0-3.935c-.018-.39-.187-.7-.629-.625s-.8.113-.8.113l.018-.389a8.214,8.214,0,0,0,2.6-1.021c.11.09.221.165.221.165a3.492,3.492,0,0,0-.1,1.622"/>
    <path id="Tracciato_43" data-name="Tracciato 43" d="M266.124,26.476a.855.855,0,1,1-.854-.821.839.839,0,0,1,.854.821"/>
    <path id="Tracciato_44" data-name="Tracciato 44" d="M263.223,30.4a9.987,9.987,0,0,0,2.556-1.035.907.907,0,0,1,.227.158,23.89,23.89,0,0,0-.143,2.922c0,2.183.005,2.534.013,2.955s.044.844.451,1.043a7.133,7.133,0,0,0,.928.3v.377s-1.322-.054-2.016-.054-2.016.054-2.016.054v-.37c.306-.1.83-.281,1.032-.377s.322-.114.33-1.114.009-3.288-.008-3.9-.338-.7-.661-.658a5.281,5.281,0,0,1-.726.1Z"/>
    <path id="Tracciato_45" data-name="Tracciato 45" d="M270.541,32.7c0,2.165,0,2.3.013,2.716.025.64.045.884.452,1.082a5.211,5.211,0,0,0,.926.25v.375s-1.322-.054-2.016-.054-1.936.054-1.936.054v-.368c.306-.1.73-.177.932-.272s.343-.215.351-1.206.008-3.263-.008-3.872-.339-.7-.661-.652-.643.094-.643.094l-.05-.391a10.022,10.022,0,0,0,2.556-1.026.933.933,0,0,1,.227.156s-.064.454-.107,1.344a11.137,11.137,0,0,1,1.654-1.31c.631-.32,2.935-.389,3.173,1.31.924-1.12,2.346-2.026,4.027-1.165a2.051,2.051,0,0,1,.974,2.079c0,.819-.016,3.358,0,3.986s.272.681.561.744.75.153.75.153v.412s-1.328-.063-1.946-.063-2.038.063-2.038.063l.009-.394s.448-.144.724-.23c.414-.129.579-.237.579-2.659,0-1.606,0-1.731-.025-1.991a1.29,1.29,0,0,0-1.2-1.319,2.131,2.131,0,0,0-2.351,1.9v3.167c0,.431-.041.727.322.861a9.951,9.951,0,0,0,1.015.278l.008.37s-1.411-.065-1.963-.065-2.03.081-2.03.081l.025-.386s.462-.125.776-.224.494-.475.494-1.04.067-2.557.042-3.31-.363-1.646-1.287-1.66a2.18,2.18,0,0,0-2.332,2.077Z"/>
    <path id="Tracciato_46" data-name="Tracciato 46" d="M289.88,35.786a1.714,1.714,0,0,1-.739.391c-.61.218-.739-.576-.729-1.054s.06-1.977.06-2.966-.04-1.792-.59-2.205c-1.353-1.017-3.507-.369-4.571.195l-.254,1.587.509.087c.54-1.3,1.4-1.837,2.418-1.63s1.049.934,1.079,1.814a25.665,25.665,0,0,0-3.806,1.771,1.924,1.924,0,0,0-.59,2.423,2.187,2.187,0,0,0,2.758.941,5.01,5.01,0,0,0,1.628-.995,1.237,1.237,0,0,0,2.018.891,14.018,14.018,0,0,0,1.079-.967ZM287,35.08a1.464,1.464,0,0,1-.829.978c-.2.107-1.1.51-1.671.089a1.364,1.364,0,0,1-.357-1.752c.311-.694,2.219-1.4,2.917-1.716a21.068,21.068,0,0,1-.06,2.4"/>
    <path id="Tracciato_47" data-name="Tracciato 47" d="M344.738.974A1.954,1.954,0,0,0,343.053,0H177.73a1.97,1.97,0,0,0-1.685.974,2,2,0,0,0,0,1.947l82.661,143.412a1.945,1.945,0,0,0,3.37,0L344.738,2.921a1.936,1.936,0,0,0,0-1.947M263.1,136.765a3.183,3.183,0,0,0-2.709-2.038,3.151,3.151,0,0,0-2.695,2.051l-74.354-129a3.119,3.119,0,0,0,2.851-1.661,2.718,2.718,0,0,0-.078-2.22H335.147a2.718,2.718,0,0,0-.078,2.22,2.987,2.987,0,0,0,2.4,1.622Z"/>
    <path id="Tracciato_48" data-name="Tracciato 48" d="M101.678,100.831a17.652,17.652,0,0,0,2.022-2.57,21.522,21.522,0,0,1-2.022,2.57"/>
    <path id="Tracciato_49" data-name="Tracciato 49" d="M84.8,76a2.413,2.413,0,0,1-2.491-2.416,2.526,2.526,0,0,1,2.438-2.538,2.41,2.41,0,0,1,2.624,2.512A2.516,2.516,0,0,1,84.8,76"/>
    <path id="Tracciato_50" data-name="Tracciato 50" d="M45.108,28.583a9.954,9.954,0,1,0-14.389-9.1,9.837,9.837,0,0,0,8.165,9.6h0c1.125,1.474,3.163,4.141,8.736,4.669A6.077,6.077,0,0,0,51,29.976c-.992-.4-4.9.595-5.891-1.393m-9.538-8.85a5.155,5.155,0,1,1,10.291,0,5.155,5.155,0,1,1-10.291,0"/>
    <path id="Tracciato_51" data-name="Tracciato 51" d="M81.447,14.1a11.473,11.473,0,0,1,6.742,2.213c.843.462,1.458-3.384,1.007-3.731a12.711,12.711,0,0,0-7.749-2.5c-5.521,0-10,3.849-10,9.241a10.061,10.061,0,0,0,8.165,9.862c3.721.631,9.728-.55,9.9-2.775.162-2.113.162-3.516.162-5.734,0-1.142-.278-1.5-1.726-1.533-1.219-.027-3.452-.163-4.364-.261s-1.172-.15-1.172.691v2.669c0,.554.358.554,1.042.554s1.27,0,1.27.587c0,1.305-.009,2-3.279,1.666-3.117-.322-4.885-2.715-4.885-5.737A4.883,4.883,0,0,1,81.447,14.1"/>
    <path id="Tracciato_52" data-name="Tracciato 52" d="M58.692,13.066a1.974,1.974,0,1,1-1.974-1.977,1.976,1.976,0,0,1,1.974,1.977"/>
    <path id="Tracciato_53" data-name="Tracciato 53" d="M58.488,28.5a4.406,4.406,0,0,1-1.771.261,6.03,6.03,0,0,1-1.771-.261V16.73a4.175,4.175,0,0,1,1.771-.261,5.439,5.439,0,0,1,1.771.261Z"/>
    <path id="Tracciato_54" data-name="Tracciato 54" d="M99.569,16.122a6.765,6.765,0,0,0-6.964,6.545,6.977,6.977,0,0,0,13.928,0,6.765,6.765,0,0,0-6.964-6.545m0,9.985c-1.78,0-2.962-1.54-2.962-3.44s1.182-3.442,2.962-3.442,2.962,1.542,2.962,3.442-1.183,3.44-2.962,3.44"/>
    <path id="Tracciato_55" data-name="Tracciato 55" d="M122.752,20.739V29a9.146,9.146,0,0,1-2.178.266,10.054,10.054,0,0,1-2.2-.266V22.289c0-1.206.066-2.938-1.414-2.938a3.729,3.729,0,0,0-2.793,1.808V29a7.445,7.445,0,0,1-2.108.266,6.434,6.434,0,0,1-1.85-.266V16.527a4.475,4.475,0,0,1,1.85-.264,9.06,9.06,0,0,1,2.108.264v1.8c1.342-1.253,2.514-2.284,4.617-2.255,2.235.031,3.965,1.482,3.965,4.666"/>
    <path id="Tracciato_56" data-name="Tracciato 56" d="M140.313,16.39c-.751-.362-4.265-.224-5.623-.075l0,0a8.1,8.1,0,0,0-1.785-.195c-3.426,0-6.206,2.072-6.206,4.632a4.5,4.5,0,0,0,2.827,3.886c-.735.308-1.861.924-1.9,1.61-.061,1.025,1.553,1.177.862,1.529a.414.414,0,0,1-.07.034c-1.733.825-2.577,2.01-2.439,3.576.253,2.85,3.445,3.729,7.2,3.408,4.573-.391,6.579-1.759,6.412-4.609-.14-2.382-2.412-3.836-5.961-3.6h0c-.049-.008-.106-.016-.169-.023-2.084-.227-1.529-.786-.867-1.18h0c.1,0,.211,0,.318,0,3.426,0,6.2-2.074,6.2-4.632a3.632,3.632,0,0,0-.469-1.772,2.975,2.975,0,0,1,1-.11c.919.055,1.42-2.119.667-2.482m-7.976,13.128c1.981-.139,3.38.42,3.38,1.192,0,1.154-1.264,1.49-2.681,1.6s-3.257-.347-3.262-1.388c-.006-.838,1.146-1.305,2.563-1.4m.571-6.885a2.147,2.147,0,0,1-2.342-1.879,2.4,2.4,0,0,1,4.684,0,2.149,2.149,0,0,1-2.342,1.879"/>
    <path id="Tracciato_57" data-name="Tracciato 57" d="M95.373,45.346l-.687,5.424a8.177,8.177,0,0,1-4.928.113c-1.933.157-1.937,1.391-1.887,2.176s-.244,2.586,1.542,2.321,3.683-.646,4.915-.674,3.033.379,4.687-.781.364-3.917-.973-3.56c-.065-1.121-.118-5.158-.118-5.158.984-.588,2.023-.566,1.893-2.722s-1.148-3.091-2.852-2.573-1,1.623-3.259,1.874c-1.714.192-1.979,1.391-1.586,2.675.356,1.163,1.578.678,3.253.885"/>
    <path id="Tracciato_58" data-name="Tracciato 58" d="M105.935,45.543c-.12.955-4.989,9.482-10.164,14.887,2.028.293,5.17-1.555,6.311-3.223s6.252-8.887,7.264-11.613c1.271-.373,2.109-1.194,2.685-.458s-1.665,5.29-2.255,7.28a2.43,2.43,0,0,1-2.56.366c-.967-.356-.546,1.068-.191,2.054s-.267,2.444.66,3.1,2.458.563,3.544-1.042,4.584-8.7,5.132-9.735,1.474-1.74-.272-4.537-3.476.162-3.81-.469a8.132,8.132,0,0,1-.518-1.995c.963-.709,1.3-2.033.72-3.775s-3.094-1.531-3.631-1.5.205,3.542-.52,5.244-.621,2.466-2.146,2.676-4.035-.23-3.866,1.6,1.431,2.164,3.617,1.144"/>
    <path id="Tracciato_59" data-name="Tracciato 59" d="M78.6,57.718c-1.4,1.052-7.543.87-10.2-5.115-.415-.922-.272-4.556,0-5.92s.207-.61-1.763-.155c-.725,1.519-.44,3.453-.829,5.192-.3,1.338-1.374.559-1.244,2.129.181,2.22-.4,3.285-1.711,2.817-3.37-1.22-2.488,2.078-4.225,1.338s1-4.025-.674-3.9a1.307,1.307,0,1,1-.259-2.6c1.594.078-.817-1.727.453-3.3a.693.693,0,0,0,.169-.467c-1.387-.493-2.113-1.947-.946-2.155,2.1-.377,3.927-.779,5.43-1.169-.013,0-.013-.013-.026-.013-.79-.506.778-2.881-.8-3.206-1.076-.208-1.8,2.285-3.409.818-1.192-1.078.57-2.1.57-3.986s.052-2.882,2.217-2.609c2.229.273,1.84,2.194,1.594,3.038,1.451.506,7.8-1.1,4.951,1.843-.143.143-.778.636-.726,2.687v.065c.259-.1.441-.181.544-.233.609-.325,2.346-1.649,3.953-.675,1.18.727.8,2.739-.324,3.258-.207,1.182-.311,3.96.428,5.193s1.231,2.83,4.316,3.609c.337-1.1.8-2.726,1.7-2.622,1.543.181,2.217,5.088.817,6.127"/>
    <path id="Tracciato_60" data-name="Tracciato 60" d="M69.747,55.256c0,.776-.882,1.4-1.971,1.4s-1.971-.629-1.971-1.4.882-1.4,1.971-1.4,1.971.629,1.971,1.4"/>
    <path id="Tracciato_61" data-name="Tracciato 61" d="M168.943.974A1.927,1.927,0,0,0,167.258,0H1.935A1.907,1.907,0,0,0,.263.974a1.936,1.936,0,0,0,0,1.947l82.661,143.4a1.934,1.934,0,0,0,3.357,0l82.662-143.4a1.936,1.936,0,0,0,0-1.947M87.305,136.752a3.183,3.183,0,0,0-2.709-2.038,3.151,3.151,0,0,0-2.695,2.051L7.534,7.763a3.173,3.173,0,0,0,2.877-1.648,2.721,2.721,0,0,0-.091-2.22H159.365a2.721,2.721,0,0,0-.091,2.22A3.011,3.011,0,0,0,161.7,7.724Z"/>
    <path id="Tracciato_62" data-name="Tracciato 62" d="M84.842,62.742a22.777,22.777,0,1,0,15.643,39.3c.156-.13.3-.272.441-.415.259-.26.506-.519.752-.792a21.625,21.625,0,0,0,2.022-2.57c.155-.221.285-.442.427-.663A22.784,22.784,0,0,0,84.842,62.742M64.689,85.512A20.181,20.181,0,0,1,84.842,65.338a19.909,19.909,0,0,1,3.655.338,9.242,9.242,0,0,1,4.031,11.411c-1.9,4.751-6.636,6.05-9.721,6.919-9.253,2.636-11.2,14.164-5.741,20.135A20.207,20.207,0,0,1,64.689,85.512M82.6,97.209a2.236,2.236,0,0,1,2.151-2.246,2.124,2.124,0,0,1,2.294,2.22,2.222,2.222,0,0,1-2.255,2.155,2.135,2.135,0,0,1-2.19-2.129"/>
  </g>
</svg>
