<svg id="fiori_lvMisti" xmlns="http://www.w3.org/2000/svg" xmlns:xlink="http://www.w3.org/1999/xlink" width="400.858" height="129.717" viewBox="0 0 400.858 129.717">
  <defs>
    <clipPath id="clip-path">
      <rect id="Rettangolo_51" data-name="Rettangolo 51" width="400.858" height="129.717" fill="none"/>
    </clipPath>
  </defs>
  <g id="Raggruppa_142" data-name="Raggruppa 142" clip-path="url(#clip-path)">
    <path id="Tracciato_119" data-name="Tracciato 119" d="M128.884,68.407A61.035,61.035,0,1,1,67.848,7.372a61.035,61.035,0,0,1,61.035,61.035" transform="translate(-2.885 -3.122)"/>
    <path id="Tracciato_120" data-name="Tracciato 120" d="M163.038,58.725c-3.505-10.92-11.554-16.835-22.906-17.977-2.537-.259-3.822-.963-5-3.379-4.682-9.605-12.436-14.846-23.073-14.99V35.2h.017c1.891-.052,2.162.917,2.156,2.462q-.052,12.081.006,24.163c.006,1.338-.484,2.848,1.568,3.488,1.92.594,2.272-.922,3.015-1.845,2.4-3,4.716-6.071,7.057-9.121a6.891,6.891,0,0,0,1.862-4.14,3.271,3.271,0,0,1,3.54-3.327,3.2,3.2,0,0,1,3.442,2.577c.5,2.012-.161,3.834-2.174,4.336-2.739.68-3.557,3.061-5.056,4.826-2.012,2.381-3.88,4.9-5.731,7.414-.64.865-1.822,1.528-.876,3.085.992,1.626,2.168,1.13,3.407.773,7.714-2.254,15.417-4.56,23.148-6.774,1.3-.369,2.975-1.666,3.707.922.732,2.612-1.43,2.364-2.71,2.75-7.576,2.3-15.192,4.486-22.791,6.723-1.084.323-2.6.2-2.687,1.856-.086,1.7,1.447,1.649,2.52,2.012,3.413,1.147,6.838,2.254,10.251,3.39,1.828.605,3.546,1.136,5.587.461,1.62-.542,3.038.484,3.771,2.064a3.31,3.31,0,0,1-1.015,4.209c-1.349,1.107-3.286,1.378-4.284.127-2.5-3.131-6.221-3.315-9.484-4.584-2.231-.871-4.578-1.447-6.832-2.26a2.285,2.285,0,0,0-3.067.824c-.969,1.291-.092,1.978.507,2.79q7.5,10.153,15.036,20.266c.922,1.234,1.764,2.156-.075,3.459s-2.266-.173-3-1.147c-4.953-6.648-9.87-13.324-14.846-19.954-.669-.894-1.124-2.335-2.7-1.926-1.741.455-1.049,1.96-1.072,3.021-.086,3.846.023,7.7-.063,11.542a8.82,8.82,0,0,0,1.326,5.085c.917,1.493.317,3.05-1.038,4.157a3.368,3.368,0,0,1-2.421.842v7.328a4.656,4.656,0,0,1,1.96.842,24.276,24.276,0,0,0,14.31,4.145c16.9.058,28.908-14.708,25.6-31.652a3.548,3.548,0,0,1,1.28-3.955c8.418-7.564,11.266-17,7.824-27.726" transform="translate(-47.452 -9.477)" fill="#f9eb21"/>
    <path id="Tracciato_121" data-name="Tracciato 121" d="M112.06.01V5.2a59.663,59.663,0,0,1,0,119.322v5.195A64.857,64.857,0,0,0,112.06.01" transform="translate(-47.452 -0.004)" fill="#f9eb21"/>
    <path id="Tracciato_122" data-name="Tracciato 122" d="M29.975,86.451a3.547,3.547,0,0,1,1.279,3.955c-3.3,16.945,8.706,31.71,25.6,31.652a24.274,24.274,0,0,0,14.31-4.145,4.662,4.662,0,0,1,1.96-.842v-7.328a3.368,3.368,0,0,1-2.421-.842c-1.355-1.107-1.954-2.664-1.038-4.157A8.82,8.82,0,0,0,71,99.66c-.086-3.846.023-7.7-.063-11.542-.023-1.061.668-2.566-1.072-3.021-1.58-.409-2.035,1.032-2.7,1.926-4.975,6.63-9.893,13.307-14.846,19.954-.732.974-1.159,2.439-3,1.147s-1-2.225-.076-3.459Q56.8,94.563,64.273,84.4c.6-.813,1.476-1.5.507-2.79a2.285,2.285,0,0,0-3.067-.824c-2.254.813-4.6,1.389-6.832,2.26-3.263,1.268-6.988,1.453-9.484,4.584-1,1.251-2.935.98-4.284-.127A3.309,3.309,0,0,1,40.1,83.292c.731-1.58,2.15-2.606,3.769-2.064,2.042.675,3.759.144,5.587-.461,3.413-1.136,6.838-2.243,10.251-3.39,1.072-.363,2.605-.311,2.519-2.012-.086-1.655-1.6-1.534-2.687-1.856-7.6-2.237-15.214-4.422-22.79-6.723-1.281-.386-3.443-.138-2.71-2.75.733-2.589,2.411-1.291,3.708-.922,7.731,2.214,15.434,4.52,23.148,6.774,1.24.357,2.416.853,3.408-.773.946-1.557-.237-2.22-.876-3.085C61.575,63.516,59.707,61,57.7,58.616c-1.5-1.764-2.318-4.145-5.056-4.826-2.012-.5-2.669-2.323-2.174-4.336a3.2,3.2,0,0,1,3.441-2.577A3.272,3.272,0,0,1,57.447,50.2a6.89,6.89,0,0,0,1.862,4.14c2.341,3.05,4.658,6.123,7.057,9.121.744.922,1.1,2.439,3.015,1.845,2.053-.64,1.563-2.151,1.569-3.488Q71,49.74,70.956,37.658c-.006-1.545.265-2.514,2.156-2.462h.017V22.38c-10.637.144-18.392,5.385-23.073,14.99-1.176,2.416-2.462,3.119-5,3.379C33.7,41.89,25.657,47.806,22.151,58.725c-3.443,10.729-.594,20.162,7.824,27.726" transform="translate(-8.775 -9.477)" fill="#008f45"/>
    <path id="Tracciato_123" data-name="Tracciato 123" d="M0,64.866a64.93,64.93,0,0,0,64.354,64.856v-5.195a59.663,59.663,0,0,1,0-119.322V.01A64.926,64.926,0,0,0,0,64.866" transform="translate(0 -0.004)" fill="#008f45"/>
    <path id="Tracciato_124" data-name="Tracciato 124" d="M111.687,0V.006C111.52,0,111.347,0,111.18,0Z" transform="translate(-47.08)"/>
    <path id="Tracciato_125" data-name="Tracciato 125" d="M365.994,68.407A61.035,61.035,0,1,1,304.958,7.372a61.035,61.035,0,0,1,61.035,61.035" transform="translate(-103.29 -3.122)"/>
    <path id="Tracciato_126" data-name="Tracciato 126" d="M400.147,58.725c-3.505-10.92-11.554-16.835-22.906-17.977-2.537-.259-3.822-.963-5-3.379-4.682-9.605-12.436-14.846-23.073-14.99V35.2h.017c1.891-.052,2.162.917,2.156,2.462q-.052,12.081.006,24.163c.006,1.338-.484,2.848,1.568,3.488,1.92.594,2.272-.922,3.015-1.845,2.4-3,4.716-6.071,7.057-9.121a6.891,6.891,0,0,0,1.862-4.14,3.271,3.271,0,0,1,3.54-3.327,3.2,3.2,0,0,1,3.442,2.577c.5,2.012-.161,3.834-2.174,4.336-2.739.68-3.557,3.061-5.056,4.826-2.012,2.381-3.88,4.9-5.731,7.414-.64.865-1.822,1.528-.876,3.085.992,1.626,2.168,1.13,3.407.773,7.714-2.254,15.417-4.56,23.148-6.774,1.3-.369,2.975-1.666,3.707.922.732,2.612-1.43,2.364-2.71,2.75-7.576,2.3-15.192,4.486-22.791,6.723-1.084.323-2.6.2-2.687,1.856-.087,1.7,1.447,1.649,2.519,2.012,3.413,1.147,6.838,2.254,10.251,3.39,1.828.605,3.546,1.136,5.587.461,1.62-.542,3.038.484,3.771,2.064a3.31,3.31,0,0,1-1.015,4.209c-1.349,1.107-3.286,1.378-4.284.127-2.5-3.131-6.221-3.315-9.484-4.584-2.231-.871-4.578-1.447-6.832-2.26a2.285,2.285,0,0,0-3.067.824c-.969,1.291-.092,1.978.507,2.79q7.5,10.153,15.036,20.266c.922,1.234,1.764,2.156-.075,3.459s-2.266-.173-3-1.147c-4.953-6.648-9.87-13.324-14.846-19.954-.669-.894-1.124-2.335-2.7-1.926-1.741.455-1.049,1.96-1.072,3.021-.086,3.846.023,7.7-.063,11.542a8.82,8.82,0,0,0,1.326,5.085c.917,1.493.317,3.05-1.038,4.157a3.368,3.368,0,0,1-2.422.842v7.328a4.656,4.656,0,0,1,1.96.842,24.276,24.276,0,0,0,14.31,4.145c16.9.058,28.908-14.708,25.6-31.652a3.548,3.548,0,0,1,1.28-3.955c8.418-7.564,11.266-17,7.824-27.726" transform="translate(-147.857 -9.477)" fill="#90278c"/>
    <path id="Tracciato_127" data-name="Tracciato 127" d="M349.169.01V5.2a59.663,59.663,0,0,1,0,119.322v5.195a64.857,64.857,0,0,0,0-129.711" transform="translate(-147.857 -0.004)" fill="#90278c"/>
    <path id="Tracciato_128" data-name="Tracciato 128" d="M267.084,86.451a3.548,3.548,0,0,1,1.28,3.955c-3.3,16.945,8.706,31.71,25.6,31.652a24.276,24.276,0,0,0,14.31-4.145,4.659,4.659,0,0,1,1.96-.842v-7.328a3.369,3.369,0,0,1-2.422-.842c-1.355-1.107-1.954-2.664-1.038-4.157a8.819,8.819,0,0,0,1.326-5.085c-.086-3.846.023-7.7-.063-11.542-.023-1.061.669-2.566-1.072-3.021-1.58-.409-2.035,1.032-2.7,1.926-4.976,6.63-9.894,13.307-14.846,19.954-.732.974-1.159,2.439-3,1.147s-1-2.225-.075-3.459q7.559-10.1,15.036-20.266c.6-.813,1.476-1.5.507-2.79a2.285,2.285,0,0,0-3.067-.824c-2.254.813-4.6,1.389-6.832,2.26-3.263,1.268-6.988,1.453-9.484,4.584-1,1.251-2.935.98-4.284-.127a3.31,3.31,0,0,1-1.014-4.209c.732-1.58,2.15-2.606,3.77-2.064,2.041.675,3.759.144,5.587-.461,3.413-1.136,6.838-2.243,10.251-3.39,1.072-.363,2.606-.311,2.52-2.012-.086-1.655-1.6-1.534-2.687-1.856-7.6-2.237-15.215-4.422-22.791-6.723-1.28-.386-3.442-.138-2.71-2.75.732-2.589,2.41-1.291,3.707-.922,7.731,2.214,15.434,4.52,23.148,6.774,1.24.357,2.416.853,3.407-.773.945-1.557-.236-2.22-.876-3.085-1.851-2.514-3.719-5.033-5.731-7.414-1.5-1.764-2.317-4.145-5.056-4.826-2.013-.5-2.67-2.323-2.174-4.336a3.2,3.2,0,0,1,3.442-2.577,3.271,3.271,0,0,1,3.54,3.327,6.891,6.891,0,0,0,1.862,4.14c2.341,3.05,4.658,6.123,7.057,9.121.744.922,1.1,2.439,3.015,1.845,2.053-.64,1.563-2.151,1.568-3.488q.052-12.081.006-24.163c-.006-1.545.265-2.514,2.156-2.462h.017V22.38c-10.637.144-18.392,5.385-23.073,14.99-1.176,2.416-2.461,3.119-5,3.379-11.352,1.142-19.4,7.057-22.906,17.977-3.442,10.729-.594,20.162,7.824,27.726" transform="translate(-109.181 -9.477)" fill="#fff"/>
    <path id="Tracciato_129" data-name="Tracciato 129" d="M237.11,64.866a64.93,64.93,0,0,0,64.354,64.856v-5.195a59.663,59.663,0,0,1,0-119.322V.01A64.926,64.926,0,0,0,237.11,64.866" transform="translate(-100.405 -0.004)" fill="#fff"/>
    <path id="Tracciato_130" data-name="Tracciato 130" d="M348.8,0V.006C348.629,0,348.456,0,348.289,0Z" transform="translate(-147.485)"/>
    <path id="Tracciato_131" data-name="Tracciato 131" d="M600.48,68.407A61.035,61.035,0,1,1,539.444,7.372,61.035,61.035,0,0,1,600.48,68.407" transform="translate(-202.585 -3.122)"/>
    <path id="Tracciato_132" data-name="Tracciato 132" d="M634.634,58.725c-3.505-10.92-11.554-16.835-22.906-17.977-2.537-.259-3.823-.963-5-3.379-4.681-9.605-12.436-14.846-23.073-14.99V35.2h.017c1.891-.052,2.162.917,2.156,2.462q-.052,12.081.006,24.163c.006,1.338-.484,2.848,1.568,3.488,1.92.594,2.272-.922,3.015-1.845,2.4-3,4.716-6.071,7.057-9.121a6.89,6.89,0,0,0,1.862-4.14,3.271,3.271,0,0,1,3.54-3.327,3.2,3.2,0,0,1,3.442,2.577c.5,2.012-.161,3.834-2.174,4.336-2.739.68-3.557,3.061-5.056,4.826-2.012,2.381-3.88,4.9-5.731,7.414-.64.865-1.822,1.528-.877,3.085.992,1.626,2.168,1.13,3.407.773,7.714-2.254,15.417-4.56,23.148-6.774,1.3-.369,2.975-1.666,3.707.922.732,2.612-1.43,2.364-2.71,2.75-7.576,2.3-15.192,4.486-22.791,6.723-1.084.323-2.6.2-2.687,1.856-.086,1.7,1.447,1.649,2.519,2.012,3.413,1.147,6.838,2.254,10.251,3.39,1.828.605,3.546,1.136,5.587.461,1.62-.542,3.038.484,3.771,2.064a3.31,3.31,0,0,1-1.015,4.209c-1.349,1.107-3.286,1.378-4.284.127-2.5-3.131-6.221-3.315-9.484-4.584-2.231-.871-4.578-1.447-6.832-2.26a2.285,2.285,0,0,0-3.067.824c-.969,1.291-.092,1.978.507,2.79q7.5,10.153,15.036,20.266c.922,1.234,1.764,2.156-.075,3.459s-2.266-.173-3-1.147c-4.952-6.648-9.87-13.324-14.846-19.954-.669-.894-1.124-2.335-2.7-1.926-1.741.455-1.049,1.96-1.072,3.021-.087,3.846.023,7.7-.063,11.542a8.82,8.82,0,0,0,1.326,5.085c.917,1.493.317,3.05-1.038,4.157a3.368,3.368,0,0,1-2.421.842v7.328a4.657,4.657,0,0,1,1.96.842,24.276,24.276,0,0,0,14.31,4.145c16.9.058,28.908-14.708,25.6-31.652a3.548,3.548,0,0,1,1.28-3.955c8.417-7.564,11.266-17,7.824-27.726" transform="translate(-247.152 -9.477)" fill="#ea1c24"/>
    <path id="Tracciato_133" data-name="Tracciato 133" d="M583.656.01V5.2a59.663,59.663,0,0,1,0,119.322v5.195a64.857,64.857,0,0,0,0-129.711" transform="translate(-247.152 -0.004)" fill="#ea1c24"/>
    <path id="Tracciato_134" data-name="Tracciato 134" d="M501.571,86.451a3.548,3.548,0,0,1,1.28,3.955c-3.3,16.945,8.706,31.71,25.6,31.652a24.276,24.276,0,0,0,14.31-4.145,4.659,4.659,0,0,1,1.96-.842v-7.328a3.369,3.369,0,0,1-2.422-.842c-1.355-1.107-1.954-2.664-1.038-4.157a8.821,8.821,0,0,0,1.326-5.085c-.087-3.846.023-7.7-.064-11.542-.023-1.061.669-2.566-1.072-3.021-1.58-.409-2.035,1.032-2.7,1.926-4.976,6.63-9.893,13.307-14.846,19.954-.732.974-1.159,2.439-3,1.147s-1-2.225-.075-3.459q7.559-10.1,15.036-20.266c.6-.813,1.476-1.5.507-2.79a2.285,2.285,0,0,0-3.067-.824c-2.254.813-4.6,1.389-6.832,2.26-3.263,1.268-6.988,1.453-9.484,4.584-1,1.251-2.935.98-4.284-.127a3.31,3.31,0,0,1-1.014-4.209c.732-1.58,2.15-2.606,3.77-2.064,2.041.675,3.759.144,5.587-.461,3.413-1.136,6.838-2.243,10.251-3.39,1.072-.363,2.606-.311,2.519-2.012-.086-1.655-1.6-1.534-2.687-1.856-7.6-2.237-15.215-4.422-22.791-6.723-1.28-.386-3.442-.138-2.71-2.75.732-2.589,2.41-1.291,3.707-.922,7.732,2.214,15.434,4.52,23.148,6.774,1.24.357,2.416.853,3.407-.773.946-1.557-.236-2.22-.876-3.085-1.851-2.514-3.719-5.033-5.731-7.414-1.5-1.764-2.317-4.145-5.056-4.826-2.013-.5-2.67-2.323-2.174-4.336a3.2,3.2,0,0,1,3.442-2.577,3.271,3.271,0,0,1,3.54,3.327,6.891,6.891,0,0,0,1.862,4.14c2.341,3.05,4.659,6.123,7.057,9.121.744.922,1.1,2.439,3.015,1.845,2.053-.64,1.563-2.151,1.568-3.488q.052-12.081.006-24.163c-.006-1.545.265-2.514,2.156-2.462h.017V22.38c-10.637.144-18.392,5.385-23.073,14.99-1.176,2.416-2.461,3.119-5,3.379-11.352,1.142-19.4,7.057-22.906,17.977-3.442,10.729-.594,20.162,7.824,27.726" transform="translate(-208.475 -9.477)" fill="#0071b9"/>
    <path id="Tracciato_135" data-name="Tracciato 135" d="M471.6,64.866a64.93,64.93,0,0,0,64.354,64.856v-5.195a59.663,59.663,0,0,1,0-119.322V.01A64.926,64.926,0,0,0,471.6,64.866" transform="translate(-199.7 -0.004)" fill="#0071b9"/>
    <path id="Tracciato_136" data-name="Tracciato 136" d="M583.283,0V.006C583.116,0,582.943,0,582.776,0Z" transform="translate(-246.779)"/>
  </g>
</svg>
