<svg id="fiore_lv" xmlns="http://www.w3.org/2000/svg" xmlns:xlink="http://www.w3.org/1999/xlink" width="223.679" height="224.99" viewBox="0 0 223.679 224.99">
  <defs>
    <clipPath id="clip-path">
      <rect id="Rettangolo_53" data-name="Rettangolo 53" width="223.679" height="224.99" fill="none"/>
    </clipPath>
  </defs>
  <g id="Raggruppa_145" data-name="Raggruppa 145" clip-path="url(#clip-path)">
    <path id="Tracciato_149" data-name="Tracciato 149" d="M218.541,113.236A105.864,105.864,0,1,1,112.677,7.372,105.864,105.864,0,0,1,218.541,113.236"/>
    <path id="Tracciato_150" data-name="Tracciato 150" d="M200.388,85.42c-6.1-18.94-20.119-29.2-39.887-31.18-4.417-.45-6.656-1.67-8.7-5.86-8.152-16.66-21.655-25.75-40.178-26V44.61h.03c3.294-.09,3.765,1.59,3.755,4.27q-.09,20.955.01,41.91c.01,2.32-.843,4.94,2.731,6.05,3.343,1.03,3.955-1.6,5.251-3.2,4.176-5.2,8.212-10.53,12.288-15.82,1.646-2.13,3.142-4.14,3.242-7.18.121-3.49,2.4-5.72,6.165-5.77a5.568,5.568,0,0,1,5.993,4.47c.864,3.49-.281,6.65-3.785,7.52-4.769,1.18-6.194,5.31-8.8,8.37-3.5,4.13-6.757,8.5-9.98,12.86-1.114,1.5-3.172,2.65-1.525,5.35,1.726,2.82,3.774,1.96,5.933,1.34,13.433-3.91,26.845-7.91,40.308-11.75,2.259-.64,5.181-2.89,6.456,1.6,1.275,4.53-2.49,4.1-4.719,4.77-13.192,3.99-26.454,7.78-39.686,11.66-1.887.56-4.527.35-4.678,3.22-.151,2.95,2.52,2.86,4.387,3.49,5.943,1.99,11.907,3.91,17.85,5.88,3.183,1.05,6.175,1.97,9.729.8,2.821-.94,5.29.84,6.565,3.58a5.727,5.727,0,0,1-1.767,7.3c-2.349,1.92-5.723,2.39-7.459.22-4.347-5.43-10.832-5.75-16.515-7.95-3.885-1.51-7.971-2.51-11.9-3.92-2.239-.8-3.754-.67-5.341,1.43-1.686,2.24-.16,3.43.884,4.84q13.056,17.61,26.183,35.15c1.606,2.14,3.072,3.74-.131,6-3.2,2.24-3.945-.3-5.22-1.99-8.624-11.53-17.188-23.11-25.852-34.61-1.165-1.55-1.958-4.05-4.708-3.34-3.032.79-1.827,3.4-1.868,5.24-.151,6.67.041,13.35-.11,20.02a15.252,15.252,0,0,0,2.309,8.82c1.6,2.59.552,5.29-1.807,7.21a5.88,5.88,0,0,1-4.217,1.46v12.71a8.131,8.131,0,0,1,3.414,1.46,42.392,42.392,0,0,0,24.917,7.19c29.426.1,50.338-25.51,44.586-54.9-.613-3.13-.1-4.78,2.229-6.86,14.657-13.12,19.616-29.48,13.623-48.09" fill="#f8ea21"/>
    <path id="Tracciato_151" data-name="Tracciato 151" d="M111.62.01V9.02c56.893.47,103.015,46.7,103.015,103.48S168.513,215.51,111.62,215.98v9.01c61.873-.47,112.06-50.75,112.06-112.49S173.493.48,111.62.01" fill="#f8ea21"/>
    <path id="Tracciato_152" data-name="Tracciato 152" d="M36.77,133.51c2.32,2.08,2.829,3.73,2.219,6.86-5.73,29.39,15.1,55,44.41,54.9a42.1,42.1,0,0,0,24.82-7.19,8.085,8.085,0,0,1,3.4-1.46V173.91a5.842,5.842,0,0,1-4.2-1.46c-2.35-1.92-3.39-4.62-1.8-7.21a15.3,15.3,0,0,0,2.3-8.82c-.15-6.67.04-13.35-.11-20.02-.04-1.84,1.159-4.45-1.86-5.24-2.74-.71-3.53,1.79-4.691,3.34C92.63,146,84.1,157.58,75.509,169.11c-1.269,1.69-2.01,4.23-5.2,1.99-3.191-2.26-1.73-3.86-.131-6q13.111-17.52,26.08-35.15c1.04-1.41,2.56-2.6.88-4.84-1.579-2.1-3.09-2.23-5.32-1.43-3.909,1.41-7.979,2.41-11.85,3.92-5.659,2.2-12.12,2.52-16.449,7.95-1.729,2.17-5.09,1.7-7.43-.22a5.74,5.74,0,0,1-1.759-7.3c1.268-2.74,3.729-4.52,6.538-3.58,3.541,1.17,6.52.25,9.691-.8,5.919-1.97,11.86-3.89,17.78-5.88,1.86-.63,4.519-.54,4.369-3.49-.149-2.87-2.78-2.66-4.66-3.22-13.18-3.88-26.389-7.67-39.529-11.66-2.221-.67-5.971-.24-4.7-4.77,1.271-4.49,4.181-2.24,6.431-1.6,13.41,3.84,26.77,7.84,40.149,11.75,2.15.62,4.191,1.48,5.911-1.34,1.64-2.7-.411-3.85-1.52-5.35-3.21-4.36-6.45-8.73-9.94-12.86-2.6-3.06-4.02-7.19-8.77-8.37-3.49-.87-4.63-4.03-3.77-7.52a5.55,5.55,0,0,1,5.969-4.47c3.75.05,6.02,2.28,6.141,5.77.1,3.04,1.589,5.05,3.229,7.18,4.06,5.29,8.08,10.62,12.24,15.82,1.291,1.6,1.9,4.23,5.23,3.2,3.561-1.11,2.711-3.73,2.721-6.05q.089-20.955.01-41.91c-.01-2.68.46-4.36,3.74-4.27h.029V22.38c-18.449.25-31.9,9.34-40.019,26-2.04,4.19-4.27,5.41-8.67,5.86C43.239,56.22,29.28,66.48,23.2,85.42c-5.971,18.61-1.03,34.97,13.57,48.09" fill="#f8ea21"/>
    <path id="Tracciato_153" data-name="Tracciato 153" d="M0,112.5A112.619,112.619,0,0,0,111.62,224.99v-9.01a103.484,103.484,0,0,1,0-206.96V.01A112.613,112.613,0,0,0,0,112.5" fill="#f8ea21"/>
    <path id="Tracciato_154" data-name="Tracciato 154" d="M112.06,0V.01c-.29-.01-.59-.01-.88-.01Z"/>
  </g>
</svg>
