<svg id="grado_superiore" data-name="grado superiore" xmlns="http://www.w3.org/2000/svg" xmlns:xlink="http://www.w3.org/1999/xlink" width="376" height="129.059" viewBox="0 0 376 129.059">
  <defs>
    <clipPath id="clip-path">
      <rect id="Rettangolo_86" data-name="Rettangolo 86" width="376" height="129.059" fill="none"/>
    </clipPath>
  </defs>
  <g id="Raggruppa_212" data-name="Raggruppa 212" clip-path="url(#clip-path)">
    <path id="Tracciato_198" data-name="Tracciato 198" d="M368,126.059H8a5,5,0,0,1-5-5V8A5,5,0,0,1,8,3H368a5,5,0,0,1,5,5V121.059a5,5,0,0,1-5,5" fill="#141414"/>
    <rect id="Rettangolo_85" data-name="Rettangolo 85" width="370" height="123.059" rx="5" transform="translate(3 3)" fill="none" stroke="#bd272d" stroke-width="6"/>
    <path id="Tracciato_199" data-name="Tracciato 199" d="M107.661,53.021c-3-9.311-9.891-14.355-19.609-15.329-2.172-.221-3.272-.821-4.279-2.881-4.008-8.19-10.647-12.659-19.753-12.782V32.958h.015c1.619-.044,1.851.782,1.846,2.1q-.045,10.3.005,20.6c0,1.141-.415,2.429,1.342,2.974,1.644.507,1.945-.786,2.582-1.573,2.053-2.556,4.037-5.177,6.041-7.777a5.87,5.87,0,0,0,1.594-3.53,2.8,2.8,0,0,1,3.031-2.837,2.738,2.738,0,0,1,2.946,2.2c.425,1.716-.138,3.269-1.861,3.7-2.344.58-3.045,2.61-4.328,4.115-1.723,2.03-3.322,4.178-4.906,6.322-.548.737-1.56,1.3-.75,2.63.849,1.386,1.855.964,2.917.659,6.6-1.923,13.2-3.889,19.816-5.777,1.111-.314,2.547-1.421,3.174.787.627,2.227-1.224,2.015-2.32,2.345-6.485,1.961-13.005,3.825-19.511,5.732-.927.275-2.225.172-2.3,1.583-.074,1.45,1.239,1.406,2.157,1.716,2.922.978,5.854,1.922,8.776,2.891a7.17,7.17,0,0,0,4.783.393c1.387-.462,2.6.413,3.227,1.76a2.815,2.815,0,0,1-.868,3.589c-1.155.944-2.814,1.175-3.667.108-2.137-2.67-5.326-2.827-8.119-3.908-1.911-.743-3.919-1.234-5.849-1.928a1.961,1.961,0,0,0-2.626.7c-.829,1.1-.079,1.686.434,2.379q6.42,8.658,12.873,17.281c.789,1.052,1.51,1.838-.065,2.949S82.47,95,81.843,94.165C77.6,88.5,73.393,82.8,69.134,77.15c-.573-.762-.963-1.991-2.315-1.642-1.491.388-.9,1.671-.918,2.576-.074,3.279.02,6.563-.055,9.842a7.5,7.5,0,0,0,1.136,4.336c.784,1.274.271,2.6-.889,3.545a2.89,2.89,0,0,1-2.073.718v6.248a3.992,3.992,0,0,1,1.678.718,20.843,20.843,0,0,0,12.251,3.535c14.466.049,24.747-12.542,21.919-26.99a3.019,3.019,0,0,1,1.1-3.373c7.206-6.45,9.644-14.493,6.7-23.642" fill="#af9751"/>
    <path id="Tracciato_200" data-name="Tracciato 200" d="M27.222,76.664a3.026,3.026,0,0,1,1.092,3.372c-2.817,14.449,7.423,27.04,21.833,26.991a20.706,20.706,0,0,0,12.2-3.535,3.969,3.969,0,0,1,1.671-.718V96.526a2.873,2.873,0,0,1-2.065-.718c-1.155-.944-1.666-2.271-.885-3.545A7.519,7.519,0,0,0,62.2,87.927c-.074-3.279.02-6.563-.054-9.842-.02-.9.57-2.188-.914-2.576-1.347-.349-1.736.88-2.306,1.642C54.684,82.8,50.491,88.5,46.268,94.166c-.625.831-.988,2.079-2.557.978s-.85-1.9-.064-2.95q6.446-8.613,12.822-17.28c.511-.693,1.258-1.278.432-2.38a1.948,1.948,0,0,0-2.615-.7c-1.922.694-3.923,1.185-5.826,1.928C45.678,74.84,42.5,75,40.373,77.667c-.85,1.067-2.5.836-3.653-.108a2.823,2.823,0,0,1-.865-3.589c.624-1.347,1.834-2.222,3.215-1.76a7.115,7.115,0,0,0,4.764-.393c2.911-.969,5.831-1.913,8.741-2.891.914-.31,2.222-.266,2.149-1.716-.074-1.411-1.367-1.308-2.291-1.583C45.953,63.72,39.459,61.856,33,59.9c-1.092-.33-2.935-.118-2.311-2.345.624-2.208,2.055-1.1,3.161-.787,6.593,1.888,13.161,3.854,19.739,5.777,1.057.305,2.06.727,2.9-.659.807-1.327-.2-1.893-.747-2.63-1.578-2.144-3.171-4.292-4.887-6.323-1.278-1.5-1.976-3.534-4.311-4.114-1.716-.428-2.276-1.982-1.854-3.7a2.729,2.729,0,0,1,2.935-2.2,2.79,2.79,0,0,1,3.019,2.837,5.88,5.88,0,0,0,1.588,3.53c2,2.6,3.972,5.221,6.017,7.777.634.787.935,2.08,2.571,1.573,1.751-.546,1.333-1.834,1.338-2.974q.044-10.3.005-20.6c-.005-1.318.226-2.143,1.838-2.1h.015V22.03c-9.07.123-15.683,4.592-19.675,12.782-1,2.06-2.1,2.66-4.262,2.881-9.68.973-16.543,6.018-19.532,15.329-2.935,9.149-.506,17.192,6.671,23.642" fill="#af9751"/>
    <path id="Tracciato_201" data-name="Tracciato 201" d="M356.667,64.53a42.5,42.5,0,1,1-42.5-42.5,42.5,42.5,0,0,1,42.5,42.5" fill="#bd272d"/>
    <path id="Tracciato_202" data-name="Tracciato 202" d="M313.859,56.548v3.168h-3.514V72.511h-3.162V59.716h-3.514V56.548Z"/>
    <path id="Tracciato_203" data-name="Tracciato 203" d="M321.3,56.548h-3.69l-4.063,15.963h3.565l.549-2.955h3.7l.623,2.955h3.257Zm-3.075,9.987,1.171-6.291,1.333,6.291Z"/>
    <path id="Tracciato_204" data-name="Tracciato 204" d="M283.429,56.548h-3.69l-4.07,15.963h3.565l.549-2.955h3.7l.63,2.955h3.25Zm-3.082,9.987,1.171-6.291,1.333,6.291Z"/>
    <path id="Tracciato_205" data-name="Tracciato 205" d="M303.366,56.553l-2.921,15.956h-3.294l-1.632-8.191-1.633,8.191h-3.294l-2.921-15.956h3.155l1.413,7.978,1.406-7.978h3.748l1.4,7.978,1.413-7.978Z"/>
    <path id="Tracciato_206" data-name="Tracciato 206" d="M303.365,101.68a.5.5,0,0,1-.349-.858l37.4-36.292-37.4-36.291a.5.5,0,0,1,.632-.771l53.3,36.649a.5.5,0,0,1,0,.825l-53.3,36.65a.49.49,0,0,1-.283.088" fill="#fff"/>
    <path id="Tracciato_207" data-name="Tracciato 207" d="M303.366,27.88l53.3,36.65-53.3,36.649L341.134,64.53Zm0-1a1,1,0,0,0-.7,1.718L339.7,64.53l-37.029,35.932A1,1,0,0,0,303.932,102l53.3-36.649a1,1,0,0,0,0-1.648l-53.3-36.65a.992.992,0,0,0-.566-.176"/>
  </g>
</svg>
